I Don't Know How She Does It 2011 R5 XviD AC3 - MiSTERE

 
http://www.imdb.com/title/tt1742650/

Video
ID : 0
Format : MPEG-4 Visual
Format profile : Advanced Simple@L5
Format settings, BVOP : 2
Format settings, QPel : No
Format settings, GMC : No warppoints
Format settings, Matrix : Default (H.263)
Muxing mode : Packed bitstream
Codec ID : XVID
Codec ID/Hint : XviD
Duration : 1h 25mn
Bit rate : 2 018 Kbps
Width : 720 pixels
Height : 384 pixels
Display aspect ratio : 1.875
Frame rate : 25.000 fps
Color space : YUV
Chroma subsampling : 4:2:0
Bit depth : 8 bits
Scan type : Progressive
Compression mode : Lossy
Bits/(Pixel*Frame) : 0.292
Stream size : 1.21 GiB (82%)
Writing library : XviD 64

Audio
ID : 1
Format : AC-3
Format/Info : Audio Coding 3
Mode extension : CM (complete main)
Codec ID : 2000
Duration : 1h 25mn
Bit rate mode : Constant
Bit rate : 448 Kbps
Channel(s) : 6 channels
Channel positions : Front: L C R, Side: L R, LFE
Sampling rate : 48.0 KHz
Bit depth : 16 bits
Compression mode : Lossy
Stream size : 275 MiB (18%)
Alignment : Aligned on interleaves
Interleave, duration : 40 ms (1.00 video frame)


Thanks to RELiZLABS for the source files
Resized sharpened and adjusted RGB


Poster:

 
http://shareimage.org/images/ohf1islgwzs3w5v0licw.jpg


Screens:

 
http://shareimage.org/images/sx67ek7opuqadjp3qn.png
 
http://shareimage.org/images/ujnn6a9qi8mt58wssvdh.png


ENJOY!